# xmcd
#
# Track frame offsets:
#	150
#	16107
#	32784
#	47586
#	62676
#	78006
#	93999
#	110676
#	125464
#	140399
#
# Disc length: 2077 seconds
#
# Revision: 1
# Processed by: cddbd v1.5.2PL0 Copyright (c) Steve Scherf et al.
# Submitted via: audiograbber 1.83.01
#
DISCID=76081b0a
DTITLE=Martina McBride - Songs of Martina McBride and Friends
DYEAR=1998
DGENRE=Country
TTITLE0=Happy Girl  -  NV
TTITLE1=A Broken Wing - NV
TTITLE2=Safe In The Arms of Love - NV
TTITLE3=Valentine - NV
TTITLE4=I'm Alright - NV
TTITLE5=Happy Girl - Vocals
TTITLE6=A Broken Wing - Vocals
TTITLE7=Safe In The Arms of Love - Vocals
TTITLE8=Valentine - Vocals
TTITLE9=I'm Alright - Vocals
EXTD=CD+G
EXTT0=
EXTT1=
EXTT2=
EXTT3=
EXTT4=
EXTT5=
EXTT6=
EXTT7=
EXTT8=
EXTT9=
PLAYORDER=
